<!DOCTYPE svg PUBLIC "-//W3C//DTD SVG 1.1//EN" "http://www.w3.org/Graphics/SVG/1.1/DTD/svg11.dtd">
<!-- Uploaded to: SVG Repo, www.svgrepo.com, Transformed by: SVG Repo Mixer Tools -->
<svg fill="#fff" version="1.1" id="Capa_1" xmlns="http://www.w3.org/2000/svg" xmlns:xlink="http://www.w3.org/1999/xlink" width="800px" height="800px" viewBox="0 0 565.042 565.042" xml:space="preserve" stroke="#fff">
<g id="SVGRepo_bgCarrier" stroke-width="0"/>
<g id="SVGRepo_tracerCarrier" stroke-linecap="round" stroke-linejoin="round"/>
<g id="SVGRepo_iconCarrier"> <g> <g id="iconos_41_"> <path d="M374.803,105.35c5.957-34.932-2.754-67.683-34.913-89.39l-12.995,76.213l-48.119,19.288l-39.015-34.138L252.938,0 c-28.764,10.949-56.916,38.04-63.026,73.842c-7.468,43.796,17.146,85.67,56.486,102.271l0.373,208.261 c-28.505,11.743-50.69,37.198-56.706,69.769c-6.426,34.846,7.287,68.726,32.876,89.706c0,0,38.958,32.292,86.713,17.154 c32.388-10.26,58.522-37.063,65.111-72.779c7.631-41.377-13.12-81.406-48.444-100.072l-0.382-215.223 C350.916,159.79,369.659,135.501,374.803,105.35z M333.225,473.765l-24.595,47.812h-49.199l-24.595-47.812l24.595-47.812h49.199 L333.225,473.765z"/> </g> </g> </g>
</svg>