<?xml version="1.0" standalone="no"?>
<!DOCTYPE svg PUBLIC "-//W3C//DTD SVG 20010904//EN"
 "http://www.w3.org/TR/2001/REC-SVG-20010904/DTD/svg10.dtd">
<svg version="1.0" xmlns="http://www.w3.org/2000/svg"
 width="512.000000pt" height="512.000000pt" viewBox="0 0 512.000000 512.000000"
 preserveAspectRatio="xMidYMid meet">
<metadata>
Created by potrace 1.14, written by Peter Selinger 2001-2017
</metadata>
<g transform="translate(0.000000,512.000000) scale(0.100000,-0.100000)"
fill="#000000" stroke="none">
<path d="M848 5100 c-370 -76 -651 -312 -782 -656 -14 -39 -29 -82 -32 -95
-59 -274 -35 -507 73 -724 69 -138 188 -282 298 -363 28 -20 52 -39 55 -42 10
-10 66 -41 136 -75 216 -103 473 -127 701 -65 32 8 35 6 200 -160 93 -93 487
-489 877 -880 l709 -711 -18 -100 c-91 -522 203 -1013 705 -1178 69 -23 93
-28 180 -41 58 -8 257 -5 300 4 14 3 39 8 55 12 131 25 314 113 429 205 187
151 341 414 373 642 14 93 7 316 -11 387 -9 36 -18 72 -21 80 -46 179 -196
393 -369 524 -183 140 -392 209 -621 207 -125 -1 -138 -2 -220 -21 -33 -8 -64
-14 -69 -14 -5 -1 -67 58 -138 129 -71 72 -466 468 -876 880 l-747 750 18 85
c33 163 21 370 -33 532 -95 283 -323 524 -602 634 -171 68 -398 89 -570 54z
m342 -619 c195 -76 307 -282 264 -488 -25 -124 -114 -237 -228 -293 -216 -105
-466 -19 -573 197 -33 68 -37 84 -40 166 -2 76 2 104 22 160 46 132 149 228
290 272 61 19 199 12 265 -14z m3032 -3039 c333 -118 391 -565 98 -759 -135
-89 -314 -96 -449 -16 -162 95 -243 277 -205 460 51 248 319 399 556 315z"/>
<path d="M3919 5100 c-214 -44 -397 -145 -540 -298 -215 -228 -307 -527 -261
-845 l14 -97 -154 -154 c-84 -85 -166 -168 -182 -185 l-29 -30 349 -351 349
-351 175 176 c190 191 172 180 260 160 140 -31 330 -27 470 11 176 48 318 131
451 263 203 204 300 446 294 736 -3 142 -18 223 -67 348 l-30 79 -247 -246
c-288 -286 -309 -300 -446 -300 -67 0 -89 4 -137 28 -72 34 -130 93 -165 165
-21 46 -26 71 -26 136 -1 133 14 155 295 437 131 132 235 244 231 248 -13 12
-117 48 -190 66 -101 24 -307 26 -414 4z"/>
<path d="M1478 2152 l-176 -177 -74 18 c-89 23 -322 27 -413 8 -201 -43 -369
-135 -516 -281 -207 -205 -303 -451 -294 -752 2 -70 6 -131 9 -136 3 -5 8 -24
11 -43 8 -45 33 -121 62 -188 l24 -54 247 246 c270 269 292 285 410 294 78 7
141 -10 210 -55 159 -104 196 -338 77 -480 -11 -13 -119 -123 -239 -244 l-220
-220 35 -15 c30 -13 138 -45 201 -59 13 -3 82 -7 153 -9 146 -3 254 14 378 61
455 172 719 637 637 1120 l-13 74 159 159 c87 87 169 170 182 184 l23 25 -348
350 -349 351 -176 -177z"/>
</g>
</svg>
